<svg width="35" height="35" viewBox="0 0 35 35" fill="none" xmlns="http://www.w3.org/2000/svg">
<path d="M31.0023 11.9838L17.7131 3.03411C17.632 2.98923 17.5419 2.94434 17.4518 2.91741C17.3707 2.89048 17.2716 2.88151 17.1635 2.88151C17.0553 2.88151 16.9653 2.89048 16.8752 2.91741C16.7851 2.94434 16.695 2.98923 16.6139 3.03411L3.32458 11.9838C3.18042 12.0826 3.0723 12.2083 3.00023 12.3519C2.92815 12.4776 2.89211 12.6391 2.89211 12.8187V31.1131C2.89211 31.3914 3.00023 31.6427 3.18943 31.8223C3.36962 32.0018 3.6219 32.1185 3.9012 32.1185H30.4257C30.705 32.1185 30.9573 32.0018 31.1465 31.8223C31.3267 31.6427 31.4348 31.3914 31.4348 31.1131V12.8187C31.4348 12.6391 31.3988 12.4776 31.3267 12.3519C31.2546 12.2083 31.1465 12.0826 31.0023 11.9838ZM19.3168 0.64632L32.6511 9.62298C33.1647 9.98205 33.5881 10.4578 33.8854 11.0233C34.1647 11.5619 34.3269 12.1813 34.3269 12.8187V31.1131C34.3269 32.1813 33.8945 33.1598 33.1827 33.86C32.4799 34.5601 31.5069 35 30.4257 35H3.9012C2.82003 35 1.84699 34.5601 1.14423 33.86C0.432465 33.1598 0 32.1813 0 31.1131V12.8187C0 12.1813 0.162174 11.5619 0.450485 11.0233C0.738795 10.4578 1.16225 9.98205 1.6758 9.62298C6.14461 6.66068 10.5594 3.59964 15.0282 0.637343C15.3435 0.43088 15.6859 0.2693 16.0463 0.16158C16.4066 0.05386 16.7851 0 17.1635 0C17.5419 0 17.9203 0.05386 18.2807 0.16158C18.6411 0.2693 18.9924 0.43088 19.2988 0.637343L19.3168 0.64632Z" fill="#1544C0"/>
<path d="M22.0156 28.8695H24.187V25.7366H24.2861L26.3493 28.8695H28.917L26.1781 25.0185L28.89 21.5176H26.3223L24.2861 24.3811H24.187V21.5176H22.0156V28.8695Z" fill="#1544C0"/>
<path d="M16.9804 27.2443C15.8181 27.2443 15.0163 26.4364 15.0163 25.1886C15.0163 23.9588 15.8181 23.1419 16.9804 23.1419C18.1517 23.1419 18.9445 23.9588 18.9445 25.1886C18.9445 26.4364 18.1517 27.2443 16.9804 27.2443ZM16.9804 29.0216C19.4491 29.0216 21.1159 27.5315 21.1159 25.1886C21.1159 22.8547 19.4491 21.3735 16.9804 21.3735C14.5117 21.3735 12.8359 22.8547 12.8359 25.1886C12.8359 27.5315 14.5117 29.0216 16.9804 29.0216Z" fill="#1544C0"/>
<path d="M7.70883 28.8685H9.88917V23.294H12.1957V21.5166H5.40234V23.294H7.70883V28.8685Z" fill="#1544C0"/>
<path d="M15.2239 19.4699C17.2871 19.4699 18.6296 18.5273 18.6296 17.0641C18.6296 15.2868 16.9357 15.0264 15.6744 14.8379C14.8185 14.7123 14.0887 14.6225 14.0887 14.0659C14.0887 13.653 14.5031 13.3658 15.1879 13.3658C15.9357 13.3658 16.4132 13.7428 16.4132 14.3891H18.3863C18.3863 12.8631 17.0799 11.8218 15.1158 11.8218C13.1697 11.8218 11.9173 12.7643 11.9173 14.2185C11.9173 16.1126 13.8274 16.2652 15.0978 16.4358C15.8546 16.5435 16.4582 16.6692 16.4582 17.1988C16.4582 17.6476 16.0077 17.908 15.305 17.908C14.422 17.908 13.9085 17.504 13.8995 16.8936H11.8633C11.8633 18.4106 13.2057 19.4699 15.2239 19.4699Z" fill="#1544C0"/>
<path d="M7.71094 19.3167H9.89128V11.9648H7.71094V19.3167Z" fill="#1544C0"/>
</svg>
