<svg width="245" height="192" viewBox="0 0 245 192" fill="none" xmlns="http://www.w3.org/2000/svg">
<path d="M45.3398 11.5498C45.3398 5.16939 39.7125 0 31.2742 0C24.2614 0 21.8512 3.86992 21.8512 3.86992C21.8512 3.86992 15.2227 5.30242 15.2227 13.5394C15.2227 21.196 15.2227 34.3695 15.2227 34.3695H26.1144H26.6696H34.7136H43.4577V17.2151C44.149 16.3664 45.3398 14.4795 45.3398 11.5498ZM32.2423 30.2039C31.6526 30.2039 31.0088 30.0952 30.337 29.9057V34.369H20.6996V22.8863C20.6337 22.7022 20.569 22.505 20.5061 22.2977C16.2335 21.8897 16.4104 14.8287 18.9494 14.8287C18.9838 14.8287 19.0177 14.8317 19.051 14.8365V14.8359C29.7235 18.2479 36.9009 12.6574 39.2492 8.77324C39.2492 11.4838 42.2491 14.1267 43.3164 14.3679C43.1578 24.0545 36.228 30.2039 32.2423 30.2039Z" fill="#311643"/>
<path d="M30.3344 30.5203V29.9056C31.0061 30.095 31.6498 30.2037 32.2396 30.2037C36.2259 30.2037 43.1557 24.0543 43.3131 14.3671C42.2458 14.126 39.246 11.4831 39.246 8.77246C36.8977 12.6572 29.7203 18.2471 19.0477 14.8351V14.8357C19.0145 14.8309 18.9812 14.828 18.9462 14.828C16.4072 14.828 16.2302 21.889 20.5028 22.297C20.5657 22.5042 20.6305 22.7014 20.6964 22.8855V30.6099L13.1484 34.168V43.4841H38.231V34.0796L30.3344 30.5203Z" fill="#FCBEB7"/>
<path d="M38.2355 43.485V34.0805L30.3383 30.5206V29.9059C28.1052 29.2757 25.5668 27.7494 23.7031 26.3252L38.2355 43.485Z" fill="#F9AFAB"/>
<path d="M25.1878 22.5461C26.6399 22.5461 27.8171 21.3689 27.8171 19.9168C27.8171 18.4647 26.6399 17.2876 25.1878 17.2876C23.7357 17.2876 22.5586 18.4647 22.5586 19.9168C22.5586 21.3689 23.7357 22.5461 25.1878 22.5461Z" fill="#F49795"/>
<path d="M42.9766 17.7341C42.6434 19.4998 42.0846 21.1099 41.379 22.5424C39.9887 22.4735 38.8828 21.3243 38.8828 19.9167C38.8828 18.4646 40.0599 17.2881 41.5114 17.2881C42.0536 17.2875 42.5579 17.452 42.9766 17.7341Z" fill="#F49795"/>
<path d="M38.5298 11.9219C36.6102 11.9219 35.0251 13.3811 34.8256 15.249C33.7821 14.7578 32.861 15.0239 32.3745 15.2472C32.1738 13.3805 30.5898 11.9219 28.6709 11.9219C26.6165 11.9219 24.9453 13.5931 24.9453 15.6475C24.9453 17.7018 26.6165 19.3731 28.6709 19.3731C30.6795 19.3731 32.321 17.7754 32.3929 15.7841C32.7023 15.6059 33.6853 15.1521 34.8078 15.7882C34.882 17.7772 36.5229 19.3731 38.5298 19.3731C40.5841 19.3731 42.2554 17.7018 42.2554 15.6475C42.256 13.5931 40.5847 11.9219 38.5298 11.9219ZM28.6709 18.8855C26.8856 18.8855 25.4323 17.4328 25.4323 15.6475C25.4323 13.8616 26.885 12.4089 28.6709 12.4089C30.4568 12.4089 31.9095 13.8616 31.9095 15.6475C31.9095 17.4328 30.4568 18.8855 28.6709 18.8855ZM38.5298 18.8855C36.7445 18.8855 35.2912 17.4328 35.2912 15.6475C35.2912 13.8616 36.7439 12.4089 38.5298 12.4089C40.3156 12.4089 41.7684 13.8616 41.7684 15.6475C41.7684 17.4328 40.3156 18.8855 38.5298 18.8855Z" fill="white"/>
<path d="M38.5315 18.3166C38.2381 18.3166 38 18.0785 38 17.7851V16.792C38 16.4986 38.2381 16.2605 38.5315 16.2605C38.8249 16.2605 39.063 16.4986 39.063 16.792V17.7851C39.063 18.0785 38.8249 18.3166 38.5315 18.3166Z" fill="#311643"/>
<path d="M28.8323 18.3151C28.5384 18.3151 28.3008 18.077 28.3008 17.7836V16.7906C28.3008 16.4972 28.539 16.259 28.8323 16.259C29.1257 16.259 29.3638 16.4972 29.3638 16.7906V17.7836C29.3638 18.077 29.1257 18.3151 28.8323 18.3151Z" fill="#311643"/>
<path d="M32.6296 24.3433C31.6805 24.3433 31.0343 23.9863 30.6429 23.6615C30.1494 23.2517 29.9445 22.8045 29.9356 22.7855C29.8804 22.6625 29.935 22.5182 30.0579 22.463C30.1803 22.4077 30.324 22.4624 30.3798 22.5841C30.4077 22.6447 31.0818 24.0576 33.0399 23.8313C33.1742 23.8159 33.2948 23.9115 33.3102 24.0451C33.3256 24.1788 33.23 24.2999 33.0958 24.3154C32.9324 24.335 32.7775 24.3433 32.6296 24.3433Z" fill="#311643"/>
<path d="M48.5586 179.007L49.5557 183.152L60.4308 186.567L58.867 179.007H48.5586Z" fill="#FCBEB7"/>
<path d="M11.9171 179.007L12.2141 184.127L11.5364 184.377L11.0898 186.569L21.9542 183.152L22.2256 179.007H11.9171Z" fill="#FCBEB7"/>
<path d="M68.8214 188.177L59.9805 184.377L60.4337 186.568L49.5586 183.152V186.269C49.5586 187.364 50.1317 188.357 51.0326 188.916L51.9681 191.59C52.0489 191.821 52.2668 191.976 52.5121 191.976C52.8305 191.976 53.0882 191.718 53.0882 191.4V189.66L60.521 191.976H68.0399C69.1333 191.976 70.0194 191.09 70.0194 189.997C70.0194 189.205 69.5478 188.49 68.8214 188.177Z" fill="#2F3D6C"/>
<path d="M21.9696 186.239L21.9601 183.122L11.0952 186.57L11.5418 184.378L2.71214 188.204C1.98639 188.519 1.51716 189.235 1.51954 190.027C1.52251 191.12 2.4116 192.004 3.50499 192L11.0239 191.978L18.7096 189.559L18.715 191.38C18.7162 191.698 18.9746 191.956 19.2929 191.954C19.5376 191.954 19.7555 191.798 19.8357 191.567L20.8501 188.639C21.5468 188.057 21.972 187.186 21.9696 186.239Z" fill="#2F3D6C"/>
<path d="M13.5661 74.7652L9.55482 91.751C8.3967 96.6561 7.93999 101.701 8.19953 106.735L11.9221 179.007H22.2306L26.6321 104.002L48.5634 179.007H58.8719L40.7214 74.7646H13.5661V74.7652Z" fill="#6277D7"/>
<path d="M27.2039 38.8896C29.0343 38.8896 30.4983 37.1268 31.4854 35.3416H21.0469C22.6391 37.1221 24.8194 38.8896 27.2039 38.8896Z" fill="white"/>
<path d="M45.1943 40.3111C43.8996 37.7222 41.749 35.6602 39.1073 34.4753L32.9129 31.697C32.9129 31.988 32.4069 33.6747 31.4851 35.3419C30.498 37.1271 29.034 38.8899 27.2036 38.8899C24.8191 38.8899 22.6389 37.1224 21.0466 35.3419C19.4312 33.5352 18.4221 31.7154 18.4221 31.7154L11.2352 35.0455C8.29356 36.4085 6.12757 39.0306 5.34539 42.1772L1.14467 59.0691C0.459893 61.8237 1.2486 64.7362 3.22988 66.7686C6.53736 65.6081 12.7473 63.1909 12.7473 63.1909L13.5633 74.7656H40.718L47.4643 44.8515L45.1943 40.3111Z" fill="#FE9ECC"/>
<path d="M27.4739 41.4297C25.9641 41.4297 24.4283 40.97 22.9079 40.0643C21.7011 39.3451 20.5014 38.3443 19.342 37.0888C17.3744 34.9584 16.1759 32.7841 16.1641 32.7628L16.5673 32.5757C16.5792 32.5971 17.7409 34.7049 19.6741 36.7948C20.8037 38.0171 21.9695 38.9893 23.1389 39.6854C24.5881 40.5483 26.0467 40.9854 27.4739 40.9854C28.8209 40.9854 30.0342 40.5359 31.0801 39.6497C31.9264 38.9323 32.6688 37.928 33.2859 36.6647C34.3466 34.494 34.6365 32.4919 34.6394 32.47L35.0569 32.6571C35.0438 32.7491 34.7778 34.617 33.6885 36.8501C33.0447 38.1709 32.2649 39.2251 31.3711 39.9841C30.2415 40.9439 28.9307 41.4297 27.4739 41.4297Z" fill="white"/>
<path d="M43.6529 132.439C46.378 132.439 48.5871 130.23 48.5871 127.505C48.5871 124.779 46.378 122.57 43.6529 122.57C40.9279 122.57 38.7188 124.779 38.7188 127.505C38.7188 130.23 40.9279 132.439 43.6529 132.439Z" fill="#4A5EA3"/>
<path d="M17.8053 132.439C20.5304 132.439 22.7395 130.23 22.7395 127.505C22.7395 124.78 20.5304 122.571 17.8053 122.571C15.0802 122.571 12.8711 124.78 12.8711 127.505C12.8711 130.23 15.0802 132.439 17.8053 132.439Z" fill="#4A5EA3"/>
<path d="M11.2809 37.2391C11.2809 38.9793 9.87034 40.391 8.129 40.391C7.42996 40.391 6.78436 40.1635 6.26172 39.7781C7.24405 37.9097 8.76449 36.3595 10.6466 35.3428C11.0451 35.8702 11.2809 36.527 11.2809 37.2391Z" fill="#FF78BA"/>
<path d="M29.7182 78.6742L50.6143 77.8849C51.7125 77.8433 52.6621 77.1086 52.9775 76.0562L62.1136 45.6011C62.3078 44.9543 61.8077 44.3088 61.133 44.3337L40.0012 45.1319C39.0444 45.1682 38.2171 45.8084 37.9415 46.7254L28.7376 77.4068C28.5434 78.0541 29.0429 78.6997 29.7182 78.6742Z" fill="#4A5EA3"/>
<path d="M52.2422 62.6787L55.8983 66.3366L56.5219 64.2579L52.2422 62.6787Z" fill="#2F3D6C"/>
<path d="M57.317 57.0159L52.049 57.3639C51.66 57.3894 51.3589 57.7149 51.3625 58.1045L50.8386 58.1372C50.4983 58.1586 50.2216 58.4199 50.1818 58.759L50.1171 59.3066H50.1147C49.7251 59.3113 49.4127 59.6314 49.418 60.0211C49.4216 60.3073 49.5974 60.5627 49.8635 60.6684L51.0424 61.137C51.04 61.738 51.3886 62.285 51.9338 62.5369L55.6 64.2319C56.1327 64.4783 56.7243 64.5686 57.3058 64.4932C58.6135 64.3233 59.6719 63.3475 59.9475 62.0582L60.1755 60.9915C60.4208 59.8423 60.065 58.6473 59.2306 57.8206C58.7204 57.3146 58.0344 57.0266 57.317 57.0159Z" fill="#FCBEB7"/>
<path d="M31.1337 36.6967L34.7287 45.4842C34.9318 45.9801 35.2281 46.4291 35.5933 46.7932L36.233 47.4304C36.3815 47.5783 36.5888 47.4934 36.5911 47.2837L36.6006 46.381C36.606 45.8649 36.5027 45.3369 36.3001 44.841L32.7051 36.0535C32.4866 35.519 31.9574 35.2292 31.5233 35.4067C31.0891 35.5849 30.9145 36.1622 31.1337 36.6967Z" fill="#6277D7"/>
<path d="M35.8585 41.9319L33.885 39.2136C33.6308 38.8632 33.237 38.6399 32.8058 38.6007L29.496 38.3008C29.0452 38.2598 28.5974 38.4047 28.2559 38.7017L26.5318 40.2001C26.2829 40.4163 26.0715 40.6723 25.9058 40.9573L23.7903 44.3141L3.73339 60.5189C1.75448 62.1177 1.57988 65.0718 3.35567 66.8928C5.12196 68.7042 8.05939 68.6157 9.71402 66.7021L26.6518 47.1114L30.2141 44.9211L32.8433 45.0113C33.4544 45.0321 33.9925 44.6134 34.1225 44.016L34.2669 43.8449C34.5157 43.5497 34.6167 43.1572 34.5401 42.7789L34.3898 42.0371L35.2397 42.5858C35.3638 42.666 35.5188 42.6814 35.656 42.6274C35.9346 42.5181 36.0349 42.1748 35.8585 41.9319Z" fill="#FCBEB7"/>
<path d="M12.75 63.1911L20.1715 54.6067L13.0321 67.1928L12.75 63.1911Z" fill="#FF78BA"/>
<path d="M29.7188 78.6746L41.9872 82.0534L41.3226 78.2363L29.7188 78.6746Z" fill="#2F3D6C"/>
<path d="M44.0967 38.5158C43.7088 38.6773 43.283 38.7664 42.8363 38.7664C41.0261 38.7664 39.5586 37.2989 39.5586 35.4886C39.5586 35.2291 39.5889 34.9767 39.6459 34.7344C41.4128 35.63 42.9362 36.9283 44.0967 38.5158Z" fill="#FF78BA"/>
<path d="M6.54069 67.5365C8.22435 67.5365 9.58926 66.1716 9.58926 64.488C9.58926 62.8043 8.22435 61.4395 6.54069 61.4395C4.85703 61.4395 3.49219 62.8043 3.49219 64.488C3.49219 66.1716 4.85703 67.5365 6.54069 67.5365Z" fill="#F9AFAB"/>
<path d="M101.809 76.3147V95.088C101.809 96.1057 102.633 96.9309 103.651 96.9309H133.395C134.412 96.9309 135.238 96.1061 135.238 95.088V76.3147H101.809Z" fill="#89AEFF"/>
<path d="M105.085 68.6714H131.962C133.07 68.6714 133.969 70.1394 133.969 71.9495V88.0722C133.969 89.8828 133.07 91.3503 131.962 91.3503H105.085C103.977 91.3503 103.078 89.8823 103.078 88.0722V71.9495C103.078 70.1389 103.976 68.6714 105.085 68.6714Z" fill="#D2DCFF"/>
<path d="M133.395 96.9309H103.651C102.634 96.9309 101.809 96.1061 101.809 95.088V76.3147L118.523 88.547L135.238 76.3147V95.088C135.238 96.1057 134.412 96.9309 133.395 96.9309Z" fill="#6277D7"/>
<path d="M125.875 75.6667H111.179C110.718 75.6667 110.344 75.2928 110.344 74.8312C110.344 74.3696 110.718 73.9956 111.179 73.9956H125.875C126.337 73.9956 126.711 74.3696 126.711 74.8312C126.711 75.2928 126.337 75.6667 125.875 75.6667Z" fill="#89AEFF"/>
<path d="M122.23 79.3874H114.82C114.358 79.3874 113.984 79.0135 113.984 78.5519C113.984 78.0903 114.358 77.7163 114.82 77.7163H122.23C122.691 77.7163 123.065 78.0903 123.065 78.5519C123.065 79.0135 122.691 79.3874 122.23 79.3874Z" fill="#89AEFF"/>
<path d="M232.387 65.1062H230.022H227.657H190.679C198.459 65.1062 204.766 71.4128 204.766 79.1922V97.2648H176.593H169.235C168.374 97.2648 167.676 97.9627 167.676 98.8239V99.4531C167.676 100.314 168.374 101.012 169.235 101.012H178.221H191.112H217.565H228.067H242.481C243.38 101.012 244.109 100.283 244.109 99.3844V76.828C244.109 70.3539 238.861 65.1062 232.387 65.1062Z" fill="#D2DCFF"/>
<path d="M204.767 79.1932C204.767 71.4137 198.46 65.1072 190.68 65.1072C182.9 65.1072 176.594 71.4137 176.594 79.1932V97.2657H204.767V79.1932Z" fill="#86A2E2"/>
<path d="M211.689 101.013H207.492V191.794H211.689V101.013Z" fill="#D2DCFF"/>
<path d="M211.689 101.013V114.818L207.492 113.849V101.013H211.689Z" fill="#AEC3FF"/>
<path d="M228.41 84.7076V51.8132C228.41 50.6745 229.334 49.751 230.472 49.751H235.751C238.261 49.751 240.295 51.7859 240.295 54.2952C240.295 56.8052 238.26 58.8395 235.751 58.8395H231.207V84.7076C231.207 85.4798 230.581 86.1055 229.809 86.1055C229.037 86.1055 228.41 85.4798 228.41 84.7076Z" fill="#FE9ECC"/>
<path d="M244.113 96.3955H204.77V97.2644H244.113V96.3955Z" fill="#AEC3FF"/>
</svg>
