<svg width="23" height="22" viewBox="0 0 23 22" fill="none" xmlns="http://www.w3.org/2000/svg">
<path d="M11.9023 22C17.9789 22 22.9023 17.0766 22.9023 11C22.9023 4.92342 17.9789 0 11.9023 0C5.82576 0 0.902344 4.92342 0.902344 11C0.902344 17.0766 5.82576 22 11.9023 22ZM5.93576 10.7617L16.5416 6.67242C17.0338 6.49458 17.4638 6.7925 17.3043 7.53683L17.3052 7.53592L15.4993 16.0435C15.3655 16.6467 15.0071 16.7933 14.5057 16.5092L11.7557 14.4824L10.4293 15.7603C10.2826 15.9069 10.1588 16.0307 9.87468 16.0307L10.0699 13.2321L15.1666 8.62767C15.3884 8.43242 15.1171 8.32242 14.8247 8.51675L8.52626 12.4823L5.81109 11.6353C5.22168 11.4482 5.20884 11.0458 5.93576 10.7617Z" fill="#333333"/>
</svg>
