<svg width="15" height="17" viewBox="0 0 15 17" fill="none" xmlns="http://www.w3.org/2000/svg">
<path d="M8.8 14.8998C8.8 15.3241 8.63143 15.7311 8.33137 16.0312C8.03131 16.3312 7.62435 16.4998 7.2 16.4998C6.77565 16.4998 6.36869 16.3312 6.06863 16.0312C5.76857 15.7311 5.6 15.3241 5.6 14.8998H8.8ZM7.2 0.499786C7.41217 0.499786 7.61566 0.584072 7.76569 0.734101C7.91571 0.88413 8 1.08761 8 1.29979V2.16379C10.272 2.54779 12 4.52379 12 6.89979V11.6998L14.4 14.0998H0L2.4 11.6998V6.89979C2.4 4.52379 4.128 2.54779 6.4 2.16379V1.29979C6.4 1.08761 6.48429 0.88413 6.63432 0.734101C6.78434 0.584072 6.98783 0.499786 7.2 0.499786Z" fill="#808080"/>
</svg>
