<svg width="17" height="16" viewBox="0 0 17 16" fill="none" xmlns="http://www.w3.org/2000/svg">
<path d="M15.1579 3.36842H11.7895V1.68421L10.1053 0H6.73684L5.05263 1.68421V3.36842H1.68421C0.757895 3.36842 0 4.12632 0 5.05263V14.3158C0 15.2421 0.757895 16 1.68421 16H15.1579C16.0842 16 16.8421 15.2421 16.8421 14.3158V5.05263C16.8421 4.12632 16.0842 3.36842 15.1579 3.36842ZM6.73684 1.68421H10.1053V3.36842H6.73684V1.68421ZM7.15789 13.0526L4.21053 10.1053L5.38947 8.92632L7.15789 10.6947L11.5368 6.31579L12.7158 7.49474L7.15789 13.0526Z" fill="#808080"/>
</svg>
